<?xml version="1.0" standalone="no"?>
<!DOCTYPE svg PUBLIC "-//W3C//DTD SVG 20010904//EN"
 "http://www.w3.org/TR/2001/REC-SVG-20010904/DTD/svg10.dtd">
<svg version="1.0" xmlns="http://www.w3.org/2000/svg"
 width="1234.000000pt" height="1027.000000pt" viewBox="0 0 1234.000000 1027.000000"
 preserveAspectRatio="xMidYMid meet">

<g transform="translate(0.000000,1027.000000) scale(0.100000,-0.100000)"
fill="#000000" stroke="none">
<path d="M6115 9816 c-41 -34 -189 -146 -920 -696 -236 -178 -565 -426 -730
-550 -165 -124 -493 -372 -730 -550 -236 -178 -547 -412 -690 -520 -143 -108
-496 -374 -785 -592 -289 -217 -676 -509 -860 -647 -184 -139 -462 -348 -617
-464 -155 -116 -281 -212 -280 -214 2 -1 406 1 898 4 l894 7 -95 24 c-91 22
-113 23 -540 28 -418 4 -449 5 -512 25 -75 24 -108 49 -107 82 2 51 39 116
104 182 28 29 64 57 232 180 37 28 74 56 81 63 7 6 17 12 20 12 4 0 18 10 32
23 29 26 225 176 330 252 19 14 53 39 75 56 22 16 50 38 63 47 21 15 165 124
267 203 22 17 100 75 173 129 73 55 152 115 176 135 24 19 46 35 50 35 3 0 15
8 25 18 11 9 41 32 68 51 26 19 62 47 78 62 17 14 55 44 86 65 31 22 82 59
114 84 31 25 79 61 106 80 48 34 254 190 336 253 23 18 56 43 74 57 19 14 41
33 51 43 10 9 18 15 18 12 0 -5 277 202 310 232 8 7 44 34 80 60 36 25 89 65
119 87 29 23 76 58 105 79 28 21 65 49 81 62 45 36 273 208 299 225 12 8 58
43 102 77 43 34 147 112 229 173 214 157 313 232 342 258 14 12 29 22 32 22 3
0 17 10 31 23 14 13 63 51 110 85 120 88 199 148 286 215 242 187 368 218 537
130 48 -24 225 -150 248 -175 9 -10 21 -18 26 -18 5 0 18 -8 29 -17 38 -35
116 -96 164 -129 58 -40 272 -204 314 -239 15 -14 32 -25 36 -25 7 0 30 -17
165 -125 21 -16 64 -48 96 -70 32 -23 70 -51 84 -63 14 -13 59 -46 98 -74 40
-28 86 -62 102 -75 44 -36 69 -55 175 -135 52 -40 97 -75 100 -78 3 -4 32 -24
65 -46 33 -22 85 -60 116 -84 30 -25 77 -61 103 -80 27 -19 66 -48 87 -65 21
-16 82 -63 136 -103 54 -40 145 -108 203 -153 58 -44 131 -100 164 -124 32
-24 70 -53 85 -64 108 -81 241 -181 274 -204 21 -15 53 -41 71 -57 17 -17 35
-30 39 -30 4 0 13 -4 20 -10 45 -37 127 -100 163 -125 24 -17 73 -54 109 -82
35 -29 77 -60 92 -70 16 -10 37 -26 48 -36 11 -11 40 -33 65 -50 25 -17 57
-40 71 -51 14 -12 40 -32 59 -46 18 -14 39 -31 46 -37 7 -7 16 -13 21 -13 4 0
24 -14 43 -31 19 -17 55 -44 80 -62 40 -28 147 -108 189 -143 9 -7 45 -34 81
-61 36 -26 67 -50 70 -53 11 -11 88 -68 145 -107 33 -23 69 -49 80 -60 11 -10
65 -51 120 -91 318 -232 373 -287 389 -387 7 -46 3 -54 -44 -82 -58 -35 -169
-43 -650 -47 -392 -2 -465 -5 -527 -20 -40 -10 -75 -22 -78 -27 -4 -5 341 -10
877 -10 486 -1 939 -3 1007 -5 105 -3 122 -1 110 10 -8 8 -225 172 -484 367
-258 194 -769 578 -1135 853 -1264 952 -1658 1249 -2428 1829 -426 320 -961
723 -1189 895 -228 171 -420 312 -427 312 -6 0 -29 -15 -51 -34z"/>
<path d="M3935 7019 c-66 -7 -159 -31 -197 -50 -10 -5 -26 -9 -35 -9 -15 0
-16 -2 -3 -10 13 -8 13 -10 -1 -10 -46 0 -105 -101 -130 -220 -16 -78 -18
-163 -18 -990 0 -560 3 -922 9 -950 6 -25 13 -60 16 -78 4 -18 11 -35 15 -38
5 -3 9 -12 9 -21 0 -22 79 -123 96 -123 7 0 16 -5 20 -12 5 -7 3 -8 -6 -3 -9
6 -11 4 -6 -4 5 -7 11 -10 14 -7 9 9 32 -15 25 -27 -3 -6 -1 -7 5 -3 14 8 129
-46 161 -75 59 -55 220 -106 351 -110 101 -4 440 12 490 23 105 22 127 23 180
10 30 -7 64 -15 75 -17 32 -8 54 -37 88 -121 l32 -79 5 -1635 c3 -899 2 -1666
-2 -1705 -11 -116 -66 -198 -167 -248 l-46 -22 -1100 0 c-1045 0 -1102 1
-1145 18 -25 11 -47 22 -50 26 -3 3 -17 14 -31 23 -45 29 -86 115 -99 209 -9
63 -12 650 -10 2299 2 1465 -1 2229 -8 2255 -7 28 -10 -141 -10 -575 0 -338
-3 -1449 -7 -2468 l-6 -1852 1385 -2 c763 -1 1408 -2 1436 -3 l49 0 6 2993 c3
1745 1 2991 -4 2988 -5 -3 -78 -90 -162 -193 -85 -104 -266 -323 -404 -489
-937 -1127 -1007 -1213 -998 -1228 4 -8 3 -8 -6 0 -8 8 -11 322 -11 1245 l0
1234 2302 5 c2178 5 2300 6 2253 22 -27 9 -97 22 -154 27 -123 13 -4096 13
-4206 0z m1163 -1771 l-3 -493 -203 -3 c-130 -1 -203 1 -200 7 1 6 23 35 48
65 l45 55 98 1 97 0 0 271 0 271 -77 -94 c-43 -52 -202 -244 -353 -427 -151
-183 -276 -337 -278 -342 -2 -5 170 -9 413 -9 l416 0 -3 -67 -3 -68 -547 0
c-302 0 -548 3 -548 7 0 4 91 116 203 250 282 338 727 876 811 980 39 48 74
87 79 87 4 1 6 -221 5 -491z"/>
<path d="M8522 5720 c1 -728 3 -976 11 -925 15 99 15 1803 0 1870 -8 37 -11
-200 -11 -945z"/>
<path d="M6924 6221 c3 -101 6 -1449 6 -2995 l0 -2811 1435 0 1435 0 0 2588 0
2588 -21 -11 c-64 -35 -95 -74 -128 -161 -22 -56 -32 -104 -36 -166 -3 -49 -7
-1087 -8 -2308 l-2 -2220 -21 -52 c-22 -54 -90 -142 -110 -143 -6 0 -17 -6
-23 -14 -28 -34 -129 -37 -1211 -34 -1208 3 -1098 -5 -1194 91 -37 36 -59 69
-68 98 -20 66 -19 3381 0 3454 32 119 44 141 83 166 22 13 39 27 39 31 0 15
137 8 226 -11 70 -15 147 -21 354 -25 282 -6 325 -1 435 49 22 10 43 17 48 17
4 -1 7 2 7 7 0 10 61 37 75 33 6 -2 4 3 -3 10 -10 10 -116 13 -537 13 l-525 0
0 68 0 67 420 0 421 0 -73 88 c-40 49 -199 241 -352 428 -154 186 -283 343
-288 349 -4 5 -8 -113 -8 -263 l0 -272 93 0 94 0 34 -42 c19 -23 42 -53 52
-65 l18 -23 -205 0 -206 0 -2 495 c-2 272 0 494 3 493 4 -2 40 -43 81 -93 303
-366 970 -1166 995 -1193 l30 -33 30 25 c17 14 35 26 40 26 12 0 48 43 45 54
-2 5 4 3 13 -4 13 -11 15 -10 10 3 -4 8 -1 18 6 23 8 5 10 3 4 -6 -5 -9 -4
-11 3 -6 7 4 12 11 12 16 0 10 -215 273 -661 810 -166 201 -422 509 -567 685
-146 176 -273 329 -284 340 -20 20 -20 20 -14 -164z m1386 -1775 c0 -2 -7 -7
-16 -10 -8 -3 -12 -2 -9 4 6 10 25 14 25 6z"/>
</g>
</svg>
